<svg xmlns="http://www.w3.org/2000/svg" xmlns:xlink="http://www.w3.org/1999/xlink" width="980" height="680" viewBox="0 0 980 680">
  <defs>
    <filter id="a" width="113.3%" height="120%" x="-6.7%" y="-10%" filterUnits="objectBoundingBox">
      <feMorphology in="SourceAlpha" operator="dilate" radius="2.5" result="shadowSpreadOuter1"/>
      <feOffset in="shadowSpreadOuter1" result="shadowOffsetOuter1"/>
      <feGaussianBlur in="shadowOffsetOuter1" result="shadowBlurOuter1" stdDeviation="17.5"/>
      <feColorMatrix in="shadowBlurOuter1" values="0 0 0 0 0 0 0 0 0 0 0 0 0 0 0 0 0 0 0.5 0"/>
    </filter>
    <rect id="b" width="900" height="600" x="0" y="0" rx="80"/>
  </defs>
  <g fill="none" fill-rule="evenodd">
    <g transform="translate(40 40)">
      <use xlink:href="#b" fill="#000" filter="url(#a)"/>
      <use xlink:href="#b" fill="#FECC00"/>
    </g>
    <g fill-rule="nonzero">
      <path fill="#FECC00" d="M940 241v198.622H40V241h900z"/>
      <path fill="#D50029" d="M330.18 323.99c-3.933 5.326-10.514 14.585-14.518 19.993-2.033 2.75-5.705 7.743 6.468 7.743h64.088s10.33-14.052 18.989-25.805c11.778-15.988 1.02-49.253-41.09-49.253H198.278l-28.754 39.067h156.717c7.912 0 7.804 3.012 3.938 8.255Zm-47.082 37.373c-12.173 0-8.501-5.003-6.468-7.753 4.004-5.408 10.692-14.57 14.625-19.895 3.872-5.244 3.974-8.255-3.948-8.255h-71.673l-57.75 78.484h140.832c46.514 0 72.411-31.637 80.395-42.576 0-.005-83.14-.005-96.013-.005Zm91.614 42.581h82.616l31.32-42.586-82.606.01c-.026-.005-31.33 42.576-31.33 42.576Zm213.16-127.276-31.689 43.041h-36.87l31.673-43.041h-82.591l-55.256 75.058h202.074l55.24-75.058h-82.581Zm-93.673 127.276h82.586l31.335-42.576h-82.586c-.03-.005-31.335 42.576-31.335 42.576ZM40 378.16v9.044h115.058l6.647-9.044H40Zm134.072-16.797H40v9.034h127.41l6.662-9.034ZM40 403.944h102.732l6.616-8.992H40v8.992ZM818.756 387.2H940v-9.044H825.413l-6.657 9.044Zm-12.316 16.745H940v-8.992H813.051l-6.611 8.992Zm31.32-42.58-6.642 9.043H940v-9.044H837.76Zm-108.175-9.638 55.25-75.058h-87.472c-.03 0-55.29 75.058-55.29 75.058h87.512Zm-94.595 9.637s-6.038 8.25-8.972 12.224c-10.37 14.011-1.198 30.357 32.651 30.357h132.639l31.335-42.576H634.99v-.005Z"/>
    </g>
  </g>
</svg>
