<svg xmlns="http://www.w3.org/2000/svg" xmlns:xlink="http://www.w3.org/1999/xlink" width="980" height="680" viewBox="0 0 980 680">
  <defs>
    <linearGradient id="c" x1="50%" x2="50%" y1="0%" y2="100%">
      <stop offset="0%" stop-color="#FFF"/>
      <stop offset="100%" stop-color="#EDEDED"/>
    </linearGradient>
    <filter id="a" width="113.3%" height="120%" x="-6.7%" y="-10%" filterUnits="objectBoundingBox">
      <feMorphology in="SourceAlpha" operator="dilate" radius="2.5" result="shadowSpreadOuter1"/>
      <feOffset in="shadowSpreadOuter1" result="shadowOffsetOuter1"/>
      <feGaussianBlur in="shadowOffsetOuter1" result="shadowBlurOuter1" stdDeviation="17.5"/>
      <feColorMatrix in="shadowBlurOuter1" values="0 0 0 0 0 0 0 0 0 0 0 0 0 0 0 0 0 0 0.5 0"/>
    </filter>
    <rect id="b" width="900" height="600" x="0" y="0" rx="80"/>
  </defs>
  <g fill="none" fill-rule="evenodd">
    <g transform="translate(40 40)">
      <use xlink:href="#b" fill="#000" filter="url(#a)"/>
      <use xlink:href="#b" fill="url(#c)"/>
    </g>
    <path fill="#3F3F42" d="M616.6 441.596c-14.751 4.117-33.961 5.832-50.427 5.832-42.878 0-71.007-22.298-71.007-63.118 0-38.764 26.413-63.805 64.832-63.805 8.576 0 17.838 1.03 23.327 3.773V268.02h33.274v173.576Zm-33.275-88.503c-5.146-2.401-12.35-3.773-20.582-3.773-20.238 0-33.617 12.35-33.617 33.96 0 22.983 14.408 36.019 38.076 36.019 4.116 0 10.634 0 16.123-1.372v-64.834ZM890 441.596c-14.75 4.117-33.96 5.832-50.77 5.832-42.536 0-71.008-22.298-71.008-63.118 0-38.764 26.414-63.805 64.834-63.805 8.919 0 17.838 1.03 23.326 3.773V268.02H890v173.576Zm-33.618-88.503c-5.145-2.401-12.006-3.773-20.239-3.773-20.582 0-33.96 12.35-33.96 33.96 0 22.983 14.75 36.019 38.42 36.019 4.116 0 10.29 0 15.78-1.372v-64.834Zm-187.298 0c5.489-2.401 13.379-3.087 19.896-3.087 20.582 0 34.647 11.663 34.647 32.588 0 24.699-15.78 36.019-36.705 36.362v28.472h1.715c43.223 0 68.95-23.67 68.95-65.863 0-38.42-27.442-61.06-67.92-61.06-20.583 0-40.822 4.803-54.2 10.29v162.942h33.617V353.093Z"/>
    <path fill="#DC0032" d="M380.592 245.723h.343zM372.36 241.264l5.488 6.175 3.087-1.716-8.575-4.459z"/>
    <path fill="#DC0032" d="m364.127 236.804 10.633 12.35 3.774-2.058-4.117-4.803-10.29-5.489z"/>
    <path fill="#DC0032" d="m355.551 232.345 16.123 18.524 3.773-2.058-9.262-10.977-10.634-5.489z"/>
    <path fill="#DC0032" d="m347.318 227.885 21.268 24.7 3.774-2.06-14.75-17.15-10.292-5.49Zm40.82 43.566-2.4 1.372 2.4 2.744v-4.116Z"/>
    <path fill="#DC0032" d="m339.085 223.426 26.414 30.873 3.773-2.058-19.896-23.326-10.29-5.489Zm47.682 48.71-3.774 2.402 5.146 6.175v-6.518l-1.372-2.058Z"/>
    <path fill="#DC0032" d="m330.51 218.967 31.902 37.048 4.116-2.059-25.385-29.5-10.634-5.49Zm53.17 54.885-3.774 2.401 8.233 9.605v-6.517l-4.46-5.489Z"/>
    <path fill="#DC0032" d="m322.276 214.507 37.391 43.223 3.774-2.058-30.874-35.676-10.29-5.489Zm58.316 61.403-3.773 2.058 11.32 13.379v-6.518l-7.547-8.919Z"/>
    <path fill="#DC0032" d="m314.043 210.048 42.537 49.397 3.773-2.058-36.019-41.85-10.29-5.49Zm63.462 67.577-3.774 2.059 14.408 16.808v-6.517l-10.634-12.35Z"/>
    <path fill="#DC0032" d="m305.468 205.588 48.025 55.572 3.773-2.058-41.164-48.025-10.634-5.489Zm68.95 73.753-3.774 2.058 17.495 20.239v-6.518l-13.722-15.78Z"/>
    <path fill="#DC0032" d="m297.235 201.129 53.17 62.09 3.774-2.402-46.653-54.2-10.291-5.488Zm74.096 79.927-3.774 2.058 20.582 24.013v-6.518l-16.808-19.553Z"/>
    <path fill="#DC0032" d="m288.659 196.67 58.659 68.264 3.773-2.402-51.798-60.374-10.634-5.489Zm79.927 86.101-4.116 2.058 23.669 27.443v-6.518l-19.553-22.983Z"/>
    <path fill="#DC0032" d="m280.426 192.21 63.805 74.438 4.116-2.4-57.287-66.55-10.634-5.488Zm85.073 92.276-3.773 2.058 26.413 31.217V310.9l-22.64-26.414Z"/>
    <path fill="#DC0032" d="m272.193 187.75 69.293 80.613 3.774-2.4-62.776-72.724-10.29-5.488Zm90.219 98.451-3.774 2.059 29.5 34.646v-6.517L362.413 286.2Z"/>
    <path fill="#DC0032" d="m263.617 182.948 74.782 87.13 3.773-2.4-67.92-78.898-10.635-5.832Zm95.707 104.969-3.773 2.058 32.588 38.076v-6.517l-28.815-33.617Z"/>
    <path fill="#DC0032" d="m255.384 178.489 79.928 93.305 3.773-2.058-73.066-85.416-10.635-5.831Zm100.853 111.143-3.773 2.058 35.675 41.85v-6.86l-31.902-37.048Z"/>
    <path fill="#DC0032" d="m247.152 174.372 85.072 99.137 3.774-2.058-78.555-91.59-10.291-5.489ZM353.15 291.347l-3.774 2.058 38.763 45.28v-6.517l-34.99-40.821Z"/>
    <path fill="#DC0032" d="m241.663 173 87.474 102.224 3.773-2.058-83.7-97.765-2.058-1.029c-1.715-1.029-3.43-1.372-5.489-1.372Zm108.4 120.062-3.774 2.058 41.85 48.711v-6.518l-38.077-44.25Z"/>
    <path fill="#DC0032" d="M241.663 173c-1.372 0-2.744.343-4.116.686L326.05 276.94l4.116-2.058L242.693 173h-1.03Zm105.655 121.777-3.773 2.059 44.594 52.484v-6.861l-40.821-47.682Z"/>
    <path fill="#DC0032" d="M238.576 173.343c-.686.343-1.715.686-2.058 1.03l-2.058 1.028 88.845 103.254 3.774-2.059-88.503-103.253Zm105.655 123.15-3.774 2.4 47.682 55.572v-6.517l-43.908-51.456Z"/>
    <path fill="#DC0032" d="m235.146 174.715-3.774 2.058 88.846 103.597 3.773-2.059-88.845-103.596Zm105.997 123.493-3.773 2.4 50.769 59.003v-6.518l-46.996-54.885Z"/>
    <path fill="#DC0032" d="m232.058 176.43-3.773 2.059 88.846 103.596 3.773-2.058-88.846-103.597Zm105.998 123.493-3.773 2.401 53.856 62.775v-6.517l-50.083-58.66Z"/>
    <path fill="#DC0032" d="m228.971 178.146-3.773 2.058L314.043 283.8l3.774-2.058-88.846-103.596Zm105.998 123.492-3.774 2.401 56.944 66.206v-6.518l-53.17-62.089Z"/>
    <path fill="#DC0032" d="m225.884 179.86-3.774 2.059 88.846 103.596 3.773-2.058-88.845-103.596ZM331.88 303.354l-3.773 2.401 60.03 69.637v-6.518l-56.257-65.52Z"/>
    <path fill="#DC0032" d="m222.796 181.576-3.773 2.058 88.846 103.596 3.773-2.058-88.846-103.596Zm106.341 123.492-3.773 2.402 62.775 73.41v-6.519l-59.002-69.293Z"/>
    <path fill="#DC0032" d="m219.709 182.948-3.773 2.401 89.189 103.597 3.773-2.059-89.189-103.939Zm106.34 124.179-3.773 2.058 65.863 76.84v-6.518l-62.09-72.38Z"/>
    <path fill="#DC0032" d="m216.622 184.663-3.774 2.058 89.19 103.94 3.773-2.058-89.19-103.94Zm106.34 124.179-3.773 2.058 68.95 80.613v-6.86l-65.177-75.811Z"/>
    <path fill="#DC0032" d="m213.534 186.378-3.773 2.059 89.19 104.282 3.773-2.401-89.19-103.94Zm106.341 124.179-3.773 2.058 72.037 84.043v-6.517l-68.264-79.584Z"/>
    <path fill="#DC0032" d="m210.447 188.094-3.773 2.058 89.189 104.282 3.773-2.401-89.189-103.94Zm106.34 124.178-3.773 2.058 75.125 87.474v-6.518l-71.351-83.014Z"/>
    <path fill="#DC0032" d="m207.36 189.809-3.774 2.058 89.19 104.282 3.773-2.4-89.19-103.94ZM313.7 313.987l-3.773 2.059 78.212 91.247v-6.861L313.7 313.987Z"/>
    <path fill="#DC0032" d="m204.272 191.524-3.773 2.058 89.19 104.283 3.773-2.402-89.19-103.94Zm106.684 124.179-3.773 2.058 80.956 94.677v-6.518l-77.183-90.217Z"/>
    <path fill="#DC0032" d="m201.185 192.896-4.116 2.058 89.875 104.626 3.773-2.401-89.532-104.283Zm106.684 124.522-3.773 2.058 84.043 98.108v-6.518l-80.27-93.648Z"/>
    <path fill="#DC0032" d="m198.098 194.611-4.117 2.058L284.2 301.638c.343-.686.686-1.03 1.372-1.372l2.058-1.372-89.532-104.283Zm106.684 124.522-3.774 2.058 86.445 100.852c.343-1.029.686-2.058.686-3.087v-2.744l-83.357-97.08Z"/>
    <path fill="#DC0032" d="m195.01 196.326-4.116 2.059 92.276 107.37v-1.373c0-1.029.686-2.4 1.373-3.43L195.01 196.326Zm106.684 124.522-2.744 1.715c-.343 0-.686.343-1.029.343l87.817 102.568c1.029-1.373 1.715-2.745 2.058-4.117l-86.102-100.509Z"/>
    <path fill="#DC0032" d="m191.923 198.042-4.116 2.058 95.363 111.143v-6.86l-91.247-106.341Zm100.166 123.15 91.247 106.683c1.03-.686 2.059-2.058 3.088-3.088l-87.817-102.224c-1.372.686-3.43.686-4.802 0l-1.716-1.372Z"/>
    <path fill="#DC0032" d="m188.836 199.757-4.116 2.058L380.249 429.59l2.744-1.372 1.03-1.03-89.875-104.625h-.343l-7.89-4.802c-.686-.343-1.03-1.03-1.715-1.715-.686-1.03-.686-1.716-1.03-2.402v-3.773l-94.334-110.114Z"/>
    <path fill="#DC0032" d="m185.749 201.472-4.117 2.058 195.53 227.775 3.773-2.058z"/>
    <path fill="#DC0032" d="m182.661 202.844-4.116 2.058L374.417 433.02l3.774-2.058z"/>
    <path fill="#DC0032" d="m179.574 204.559-4.116 2.058 195.873 228.119 3.772-2.059z"/>
    <path fill="#DC0032" d="m176.487 206.274-4.117 2.059 195.873 228.118 3.774-2.059z"/>
    <path fill="#DC0032" d="m173.056 207.99-3.773 2.058 195.873 228.461 3.773-2.401z"/>
    <path fill="#DC0032" d="m169.969 209.705-3.773 2.058 195.873 228.461 3.773-2.401z"/>
    <path fill="#DC0032" d="m166.882 211.42-3.774 2.058 196.216 228.461 3.774-2.401z"/>
    <path fill="#DC0032" d="m163.794 212.792-3.773 2.058 196.216 228.804 3.773-2.401z"/>
    <path fill="#DC0032" d="m160.707 214.507-3.773 2.058L353.15 445.37l3.773-2.059z"/>
    <path fill="#DC0032" d="m157.62 216.222-3.774 2.059 95.364 111.143 3.087 2.058c1.372.686 2.744 2.401 2.744 4.116v.343l95.021 111.144 3.774-2.058L157.62 216.222Z"/>
    <path fill="#DC0032" d="m154.532 217.938-3.773 2.058 89.532 104.626 11.32 6.174-97.079-112.858Zm100.166 116.631c0 .343.343.686.343 1.03v5.83L346.975 448.8l3.773-2.058-96.05-112.173Z"/>
    <path fill="#DC0032" d="m151.445 219.653-3.773 2.058 83.7 97.765 11.32 6.175-91.247-105.998Zm103.596 120.405v6.517l89.19 103.94 3.773-2.058-92.963-108.4Z"/>
    <path fill="#DC0032" d="m148.358 221.368-3.774 2.058 78.212 90.904 10.978 6.175-85.416-99.137ZM255.04 345.203v6.861l86.102 100.166 3.774-2.058-89.876-104.969Z"/>
    <path fill="#DC0032" d="m145.27 222.74-3.773 2.058 72.38 84.387 10.978 6.518-79.585-92.963Zm109.771 127.952v6.518l83.015 96.735 3.773-2.058-86.788-101.195Z"/>
    <path fill="#DC0032" d="m142.183 224.455-3.773 2.058 66.548 77.526 10.978 6.518-73.753-86.102Zm112.858 131.382v6.518l79.928 93.305 3.773-2.058-83.7-97.765Z"/>
    <path fill="#DC0032" d="m139.096 226.17-3.773 2.059 60.716 71.008 10.978 6.174-67.921-79.24ZM255.04 360.983v6.86l76.84 89.876 3.774-2.402-80.614-94.334Z"/>
    <path fill="#DC0032" d="m136.009 227.885-3.774 2.059 54.886 64.147 10.977 6.175-62.09-72.38ZM255.04 366.472v6.517l74.096 86.445 3.773-2.402-77.869-90.56Z"/>
    <path fill="#DC0032" d="m132.921 229.6-3.773 2.059 49.054 57.287 11.32 6.174-56.6-65.52Zm122.12 142.017v6.518l71.009 83.014 3.773-2.401-74.782-87.13Z"/>
    <path fill="#DB0032" d="m129.834 231.316-3.773 2.058 43.222 50.426 11.32 6.518-50.77-59.002Zm89.875 111.143 8.919 10.291v-3.773c0-.686-.686-1.715-1.372-2.059l-7.547-4.459Zm35.332 34.304v6.86l67.921 79.241 3.774-2.401-71.695-83.7Z"/>
    <path fill="#DC0032" d="m126.747 232.688-3.774 2.058 37.391 43.909 11.32 6.517-44.937-52.484Zm84.043 104.625 17.838 20.583v-6.518l-6.518-7.547-11.32-6.518Zm44.251 44.938v6.518l64.834 75.81 3.773-2.058-68.607-80.27Z"/>
    <path fill="#DC0032" d="m123.66 234.403-3.774 2.058 31.902 37.391 10.977 6.175-39.106-45.624Zm78.211 98.108 26.757 30.873v-6.517l-15.437-18.181-11.32-6.175Zm53.17 54.886v6.517l61.747 72.38 3.773-2.058-65.52-76.84Z"/>
    <path fill="#DC0032" d="m120.572 236.118-3.773 2.059 26.07 30.53 10.977 6.174-33.274-38.763Zm72.723 91.248 35.333 41.164v-6.518l-24.356-28.472-10.977-6.174Zm61.746 65.519v6.518l59.002 68.607 3.774-2.059-62.776-73.066Z"/>
    <path fill="#DC0032" d="m117.485 237.834-3.774 2.058 20.24 23.67 10.976 6.174-27.442-31.902Zm66.892 84.386 44.251 51.455v-6.517l-33.275-38.42-10.976-6.518Zm70.664 75.81v6.518l55.915 65.177 3.773-2.058-59.688-69.636Z"/>
    <path fill="#DC0032" d="m114.397 239.549-3.773 2.058 14.407 16.809 10.978 6.518-21.612-25.385Zm61.06 77.526 53.171 62.089v-6.518l-42.193-49.054-10.977-6.517Zm79.584 86.101v6.518l52.828 61.746 3.773-2.058-56.6-66.206Z"/>
    <path fill="#DC0032" d="m111.31 241.264-3.773 2.058 8.576 9.948 11.32 6.518-16.123-18.524Zm55.229 71.008 62.089 72.038v-6.518l-51.112-59.345-10.977-6.175Zm88.502 96.393v6.517l49.74 57.973 3.774-2.058-53.514-62.432Z"/>
    <path fill="#DC0032" d="m108.223 242.636-4.117 2.058 3.088 3.774 11.32 6.174-10.291-12.006Zm49.397 64.49 71.008 82.672v-6.86L168.94 313.3l-11.32-6.174ZM255.04 413.81v6.518l46.653 54.885 3.774-2.4-50.427-59.003Z"/>
    <path fill="#DC0032" d="m105.135 244.351-2.4 1.372 6.86 3.774-4.46-5.146Zm43.566 57.63 79.927 92.962v-6.517l-68.607-79.927-11.32-6.518Zm106.34 116.975v6.86l43.91 51.113 3.773-2.402-47.683-55.571Z"/>
    <path fill="#DC0032" d="m140.125 296.836 88.503 103.253v-6.518l-77.526-90.218-10.977-6.517Zm114.916 127.608v6.518l40.822 47.682 3.773-2.401-44.595-51.799Z"/>
    <path fill="#DC0032" d="m131.206 292.033 97.422 113.544v-6.86l-86.445-100.51-10.977-6.174ZM255.041 429.59v6.518l37.734 44.251 3.774-2.401-41.508-48.368Z"/>
    <path fill="#DC0032" d="m122.287 286.887 106.341 123.836v-6.518l-95.364-111.143-10.977-6.175Zm132.754 147.849v6.86l34.647 40.478 3.774-2.058-38.42-45.28Z"/>
    <path fill="#DB0032" d="m113.368 281.742 115.26 134.126v-6.517L124.345 288.26l-10.977-6.518Zm141.673 158.482v6.518l31.56 37.047 3.773-2.058-35.333-41.507Z"/>
    <path fill="#DA0032" d="m104.45 276.596 124.178 144.761v-6.518L115.427 283.114l-10.978-6.518ZM255.04 445.37v6.517l28.816 33.618 3.773-2.059-32.589-38.076Z"/>
    <path fill="#D90032" d="m95.53 271.794 133.098 154.709v-6.518L106.851 277.968l-11.32-6.174Zm159.511 178.721v6.86l25.728 29.845 3.774-2.058-29.502-34.647Z"/>
    <path fill="#D80032" d="M95.187 271.45v4.803l133.441 155.395v-6.518L97.932 272.823l-2.745-1.372Zm159.854 184.553v4.117c0 .686-.343 1.372-.686 1.715l23.327 27.1 3.773-2.058-26.414-30.874Z"/>
    <path fill="#D70032" d="M95.187 274.881v6.86l133.441 155.396v-6.518L95.188 274.881ZM254.698 461.15c-.343 1.372-1.372 2.744-2.4 3.087l-.344.343 22.64 26.071 3.774-2.058-23.67-27.443Z"/>
    <path fill="#D60032" d="M95.187 280.37v6.517l133.441 155.395v-6.517L95.188 280.37ZM252.64 463.893c0 .343 0 .343-.343.343l-3.43 2.059 22.64 26.07 3.774-2.058-22.64-26.414Z"/>
    <path fill="#D50032" d="M95.187 285.515v6.518l133.441 155.395v-6.518L95.188 285.515Zm154.709 180.093-4.116 2.402 22.983 26.414 3.773-2.402-22.64-26.414Z"/>
    <path fill="#D40032" d="M95.187 291.004v6.518l133.441 155.394v-6.517L95.188 291.004Zm151.622 176.32-2.401 1.372c-.686.343-1.372.343-2.059.343l23.327 27.1 3.773-2.401-22.64-26.414Z"/>
    <path fill="#D30032" d="M95.187 296.15v6.517l133.441 155.395v-6.518L95.188 296.149Zm140.988 171.174 26.413 30.53 3.774-2.401-22.983-26.414c-.343 0-1.03.343-1.373.343h-.343c-1.029 0-1.715-.343-2.4-.686l-3.088-1.372Z"/>
    <path fill="#D20032" d="M95.187 301.295v6.86L259.501 499.57l3.773-2.401-24.698-28.815-7.547-4.117c-1.372-.686-2.401-2.401-2.401-4.116v-3.43L95.188 301.294Z"/>
    <path fill="#D10032" d="M95.187 306.784v6.517l161.227 187.983 3.773-2.058z"/>
    <path fill="#D00032" d="M95.187 311.929v6.518l158.139 184.552 3.774-2.058z"/>
    <path fill="#CF0032" d="M95.187 317.075v6.86l155.395 180.78 3.773-2.059z"/>
    <path fill="#CE0032" d="M95.187 322.563v6.518L247.495 506.43l3.773-2.058z"/>
    <path fill="#CD0032" d="M95.187 327.708v6.518l148.878 173.576 3.087-1.03 1.03-.685L95.186 327.708Z"/>
    <path fill="#CC0032" d="M95.187 332.854v6.86l144.418 168.088h2.058c1.03 0 2.059 0 3.088-.343L95.187 332.854Z"/>
    <path fill="#CB0032" d="M95.187 338.343v6.517L231.715 504.03l4.803 2.744c1.029.686 2.744 1.029 4.116 1.029L95.187 338.342Z"/>
    <path fill="#CA0032" d="M95.187 343.488v6.518l127.609 148.877 11.321 6.518z"/>
    <path fill="#C90032" d="M95.187 348.977v6.517l118.69 138.243 11.321 6.518z"/>
    <path fill="#C80033" d="M95.187 354.122v6.518l109.771 127.952 10.978 6.518z"/>
    <path fill="#C70033" d="M95.187 359.268v6.518l100.852 117.66 10.978 6.518z"/>
    <path fill="#C60033" d="M95.187 364.756v6.518l91.591 106.684 11.32 6.517z"/>
    <path fill="#C50033" d="M95.187 369.902v6.518l82.672 96.392 11.32 6.518z"/>
    <path fill="#C40033" d="M95.187 375.048v6.517l73.753 86.102 11.32 6.517-85.073-99.136z"/>
    <path fill="#C30033" d="M95.187 380.536v6.518l64.834 75.467 11.32 6.518z"/>
    <path fill="#C20033" d="M95.187 385.682v6.517l55.915 65.177 11.32 6.517z"/>
    <path fill="#C10033" d="M95.187 390.827v6.861l46.996 54.542 10.977 6.518z"/>
    <path fill="#C00033" d="M95.187 396.315v6.518l37.734 44.252 11.32 6.517z"/>
    <path fill="#BF0033" d="M95.187 401.461v6.518l28.815 33.96 11.321 6.175z"/>
    <path fill="#BE0033" d="M95.187 406.606v6.861l19.896 22.984 11.321 6.517z"/>
    <path fill="#BD0033" d="M95.187 412.095v6.518l10.978 12.692 11.32 6.518z"/>
    <path fill="#BC0033" d="M95.187 417.24v1.716c0 3.43 2.402 7.547 5.146 9.262l8.233 4.46-13.379-15.437Z"/>
    <path fill="#B03" d="M97.246 425.13c.686.687 1.029 1.373 1.715 1.716l-1.715-1.716Z"/>
  </g>
</svg>
