<svg xmlns="http://www.w3.org/2000/svg" xmlns:xlink="http://www.w3.org/1999/xlink" width="980" height="680" viewBox="0 0 980 680">
  <defs>
    <linearGradient id="c" x1="50%" x2="50%" y1="0%" y2="100%">
      <stop offset="0%" stop-color="#FFF"/>
      <stop offset="100%" stop-color="#EDEDED"/>
    </linearGradient>
    <linearGradient id="d" x1="57.081%" x2="42.919%" y1="100.927%" y2="-.927%">
      <stop offset="0%" stop-color="#646469"/>
      <stop offset="46%" stop-color="#A9A9AE"/>
      <stop offset="82%" stop-color="#D9D9DE"/>
      <stop offset="100%" stop-color="#EBEBF0"/>
    </linearGradient>
    <linearGradient id="e" x1="24.592%" x2="83.271%" y1="53.892%" y2="43.892%">
      <stop offset="0%" stop-color="#E6F0F5"/>
      <stop offset="6%" stop-color="#CBE4EF"/>
      <stop offset="20%" stop-color="#96CDE4"/>
      <stop offset="34%" stop-color="#68B9DA"/>
      <stop offset="47%" stop-color="#42A9D1"/>
      <stop offset="61%" stop-color="#259CCB"/>
      <stop offset="74%" stop-color="#1193C7"/>
      <stop offset="87%" stop-color="#048EC4"/>
      <stop offset="100%" stop-color="#008CC3"/>
    </linearGradient>
    <linearGradient id="f" x1="-8.849%" x2="90.366%" y1="-12.152%" y2="109.166%">
      <stop offset="0%" stop-color="#E6F0F5"/>
      <stop offset="9%" stop-color="#DDECF3"/>
      <stop offset="24%" stop-color="#C5E1EE"/>
      <stop offset="43%" stop-color="#9DD0E5"/>
      <stop offset="65%" stop-color="#66B8D9"/>
      <stop offset="90%" stop-color="#209ACA"/>
      <stop offset="100%" stop-color="#008CC3"/>
    </linearGradient>
    <linearGradient id="g" x1="57.066%" x2="43.014%" y1="100.823%" y2="-.823%">
      <stop offset="0%" stop-color="#646469"/>
      <stop offset="46%" stop-color="#A9A9AE"/>
      <stop offset="82%" stop-color="#D9D9DE"/>
      <stop offset="100%" stop-color="#EBEBF0"/>
    </linearGradient>
    <linearGradient id="h" x1="0%" x2="100.031%" y1="50.051%" y2="50.051%">
      <stop offset="0%" stop-color="#E6F0F5"/>
      <stop offset="11%" stop-color="#C0DEEA"/>
      <stop offset="28%" stop-color="#86C2DA"/>
      <stop offset="45%" stop-color="#56ABCC"/>
      <stop offset="62%" stop-color="#3199C2"/>
      <stop offset="77%" stop-color="#168DBA"/>
      <stop offset="90%" stop-color="#0685B6"/>
      <stop offset="100%" stop-color="#0082B4"/>
    </linearGradient>
    <linearGradient id="i" x1="-3.425%" x2="92.902%" y1="-1.442%" y2="101.545%">
      <stop offset="0%" stop-color="#E6F0F5"/>
      <stop offset="16%" stop-color="#C7E1EC"/>
      <stop offset="51%" stop-color="#77BBD6"/>
      <stop offset="100%" stop-color="#0082B4"/>
    </linearGradient>
    <linearGradient id="j" x1="57.004%" x2="42.915%" y1="100.823%" y2="-.823%">
      <stop offset="0%" stop-color="#646469"/>
      <stop offset="46%" stop-color="#A9A9AE"/>
      <stop offset="82%" stop-color="#D9D9DE"/>
      <stop offset="100%" stop-color="#EBEBF0"/>
    </linearGradient>
    <linearGradient id="k" x1="-2.87%" x2="92.028%" y1="38.575%" y2="52.135%">
      <stop offset="0%" stop-color="#E6F0F5"/>
      <stop offset="10%" stop-color="#C6E0EB"/>
      <stop offset="35%" stop-color="#80BDD6"/>
      <stop offset="57%" stop-color="#49A2C5"/>
      <stop offset="75%" stop-color="#218EB9"/>
      <stop offset="90%" stop-color="#0981B2"/>
      <stop offset="99%" stop-color="#007DAF"/>
    </linearGradient>
    <linearGradient id="l" x1=".737%" x2="99.711%" y1="2.778%" y2="108.745%">
      <stop offset="0%" stop-color="#E6F0F5"/>
      <stop offset="33%" stop-color="#90C5DB"/>
      <stop offset="66%" stop-color="#439EC3"/>
      <stop offset="89%" stop-color="#1386B5"/>
      <stop offset="100%" stop-color="#007DAF"/>
    </linearGradient>
    <filter id="a" width="113.3%" height="120%" x="-6.7%" y="-10%" filterUnits="objectBoundingBox">
      <feMorphology in="SourceAlpha" operator="dilate" radius="2.5" result="shadowSpreadOuter1"/>
      <feOffset in="shadowSpreadOuter1" result="shadowOffsetOuter1"/>
      <feGaussianBlur in="shadowOffsetOuter1" result="shadowBlurOuter1" stdDeviation="17.5"/>
      <feColorMatrix in="shadowBlurOuter1" values="0 0 0 0 0 0 0 0 0 0 0 0 0 0 0 0 0 0 0.5 0"/>
    </filter>
    <rect id="b" width="900" height="600" x="0" y="0" rx="80"/>
  </defs>
  <g fill="none" fill-rule="evenodd">
    <g transform="translate(40 40)">
      <use xlink:href="#b" fill="#000" filter="url(#a)"/>
      <use xlink:href="#b" fill="url(#c)"/>
    </g>
    <path fill="url(#d)" d="M186.295 34.264 195.008.011H176.77l-8.678 34.253z" transform="translate(90 279)"/>
    <path fill="url(#e)" d="M160.014 34.264 168.692.011H0l28.997 34.253z" transform="translate(90 279)"/>
    <path fill="url(#f)" d="M28.997 34.264 0 .011v10.935l24.694 23.318z" transform="translate(90 279)"/>
    <path fill="url(#g)" d="m175.218 78.007 8.678-34.289h-18.202l-8.714 34.289z" transform="translate(90 279)"/>
    <path fill="url(#h)" d="m148.973 77.936 8.713-34.253H45.119l29.914 34.253z" transform="translate(90 279)"/>
    <path fill="url(#i)" d="M75.033 77.936 45.119 43.683v9.912L70.87 77.936z" transform="translate(90 279)"/>
    <path fill="url(#j)" d="m164.106 121.679 8.749-34.289h-18.238l-8.749 34.289z" transform="translate(90 279)"/>
    <path fill="url(#k)" d="m137.896 121.679 8.678-34.289H91.26l29.879 34.289z" transform="translate(90 279)"/>
    <path fill="url(#l)" d="M121.139 121.679 91.26 87.39v9.842l25.823 24.447z" transform="translate(90 279)"/>
    <path fill="#3C3C41" d="m890 303.492-3.104 11.395c-1.376 5.256-3.951 7.302-10.16 7.302h-17.885c-8.043 0-10.583.53-12.77 2.54a10.583 10.583 0 0 0-2.505 7.055c0 2.928 1.164 4.022 5.715 5.468l18.097 5.397c12.347 3.528 16.086 7.444 15.91 16.933-.177 9.49-3.81 24.694-9.208 31.467-5.397 6.773-11.888 9.7-22.26 9.7H807.7a4.127 4.127 0 0 1-4.233-5.185l5.609-21.836h5.22c1.376 4.939 4.657 6.42 11.818 6.42h17.18c6.35 0 9.454-.917 11.324-3.28a13.088 13.088 0 0 0 3.069-8.079c0-3.986-1.376-5.08-10.125-7.443l-16.685-4.55c-9.63-2.576-13.9-7.48-13.758-15.699a58.912 58.912 0 0 1 7.725-25.716c5.045-8.573 12.453-11.853 25.929-11.853l39.227-.036Zm-398.624 24.059a75.104 75.104 0 0 1-5.186 24.693c-1.87 3.528-4.621 4.375-13.758 4.375h-41.767l-1.764 7.655a39.686 39.686 0 0 0-.846 5.856 9.101 9.101 0 0 0 4.056 8.572c2.152 1.658 7.056 2.363 15.099 2.363 16.58 0 20.566-2.257 25.893-9.806h5.538l-3.528 13.334c-2.54 9.842-3.245 11.288-6.773 13.3-4.656 2.574-13.581 3.81-27.939 3.81-13.37 0-21.166-1.236-26.422-3.81-7.337-3.916-11.359-12.453-11.182-23.036.317-17.639 8.995-45.26 17.638-56.443 8.643-11.182 20.178-15.662 40.215-15.662 22.012-.177 31.22 7.302 30.902 24.799h-.176Zm-21.166 3.104c0-7.055-4.198-10.406-13.476-10.406-12.417 0-17.391 4.762-21.73 20.248h33.442a38.451 38.451 0 0 0 1.87-9.842h-.106Zm330.54-3.104a75.104 75.104 0 0 1-5.185 24.693c-1.87 3.528-4.621 4.375-13.758 4.375h-41.838l-1.764 7.584a35.488 35.488 0 0 0-.846 5.856 9.101 9.101 0 0 0 4.056 8.572c2.152 1.658 6.88 2.364 15.099 2.364 16.58 0 20.566-2.258 25.893-9.807h5.609l-3.528 13.334c-2.54 9.843-3.245 11.289-6.773 13.3-4.657 2.575-13.581 3.81-27.939 3.81-13.37 0-21.342-1.235-26.422-3.81-7.443-3.81-11.43-12.206-11.289-22.965.318-17.639 8.996-45.26 17.639-56.443 8.642-11.182 20.178-15.662 40.215-15.662 22.048-.177 31.255 7.302 30.937 24.799h-.105Zm-21.165 3.104c0-7.055-4.198-10.406-13.476-10.406-12.417 0-17.391 4.762-21.73 20.248h33.407a37.358 37.358 0 0 0 1.834-9.842h-.035ZM406.43 284.196a4.127 4.127 0 0 0-4.268-5.185h-26.846l-.846 3.527c4.691 1.482 3.14 6.526 2.645 8.678-1.164 5.115-8.113 32.455-8.113 32.455h-36.335l10.16-39.475a4.092 4.092 0 0 0-4.234-5.185h-26.88l-.847 3.527c4.692 1.482 3.14 6.526 2.681 8.678-3.528 15.98-26.74 104.277-26.74 104.277a4.092 4.092 0 0 0 4.234 5.15h26.88l.847-3.527c-4.692-1.481-3.14-6.561-2.646-8.678.494-2.116 11.395-45.33 11.395-45.33h36.475l-13.616 52.42a4.127 4.127 0 0 0 4.268 5.151h26.846l.846-3.528c-4.692-1.481-3.14-6.561-2.646-8.678.494-2.116 26.74-104.277 26.74-104.277Zm281.86 18.52h-12.736a14.675 14.675 0 0 0-14.604 8.008l-4.798 7.479c.565-7.62-3.527-15.487-16.51-15.487H627.79a15.522 15.522 0 0 0-14.816 7.056l-5.574 7.372 2.223-8.607a4.092 4.092 0 0 0-4.269-5.15H581.19l-.917 3.527a4.48 4.48 0 0 1 3.527 4.34 14.57 14.57 0 0 1-.67 3.527l-20.707 80.924a4.127 4.127 0 0 0 4.268 5.186h23.882l.882-3.528a4.621 4.621 0 0 1-3.175-3.528 9.595 9.595 0 0 1 .494-4.092s13.476-50.516 13.723-51.574c3.033-12.911 6.773-14.463 13.546-15.345a37.922 37.922 0 0 1 4.868-.176c6.844 0 8.713 3.986 7.76 8.748-.246 1.164-16.403 64.274-16.403 64.274a4.127 4.127 0 0 0 4.269 5.185h23.882l.882-3.527a4.621 4.621 0 0 1-3.175-3.528 9.595 9.595 0 0 1 .494-4.092l13.687-51.574c3.528-12.84 6.808-14.463 13.687-15.345 1.641-.164 3.29-.223 4.94-.177 6.878 0 8.783 3.986 7.795 8.749l-16.298 64.274a4.127 4.127 0 0 0 4.234 5.185h23.952l.847-3.527a4.621 4.621 0 0 1-3.175-3.528 10.23 10.23 0 0 1 .494-4.092s16.192-64.486 16.897-67.449c1.27-6.032 1.13-19.508-17.39-19.508Zm-133.487.776c-6.032 0-6.562.177-9.56 4.34l-7.055 9.453 2.222-8.642a4.092 4.092 0 0 0-4.233-5.15h-23.918l-.881 3.527a4.515 4.515 0 0 1 3.174 3.528 9.772 9.772 0 0 1-.493 4.127l-20.849 80.924a4.092 4.092 0 0 0 4.233 5.186h23.918l.846-3.528a4.692 4.692 0 0 1-3.174-3.527 11.006 11.006 0 0 1 .493-4.092l13.547-51.857c2.928-11.817 6.067-14.604 16.474-14.604h9.49c7.266 0 9.7-1.623 11.04-6.88l3.317-12.77-18.591-.035Z"/>
  </g>
</svg>
